<svg id="Warstwa_1" data-name="Warstwa 1" xmlns="http://www.w3.org/2000/svg" width="677.3333mm" height="677.3333mm" viewBox="0 0 1920 1920"><defs><style>.cls-1{fill:#231f20;}.cls-2{fill:#86be42;}.cls-3{fill:#fff;}</style></defs><title>logo</title><circle class="cls-1" cx="960" cy="960" r="821.2691"/><path class="cls-2" d="M960,450.2993C678.5,450.2993,450.3,678.5,450.3,960S678.5,1469.7,960,1469.7s509.7-228.2,509.7-509.7S1241.5,450.2993,960,450.2993Zm0,882.1834c-205.7164,0-372.4827-166.7664-372.4827-372.4827S754.2836,587.5173,960,587.5173,1332.4827,754.2836,1332.4827,960,1165.7164,1332.4827,960,1332.4827Z"/><path class="cls-3" d="M960,262.4353c-385.2544,0-697.5647,312.31-697.5647,697.5647S574.7456,1657.5647,960,1657.5647,1657.5647,1345.2544,1657.5647,960,1345.2548,262.4353,960,262.4353Zm0,1334.9812c-352.0352,0-637.4165-285.3813-637.4165-637.4165S607.9648,322.5835,960,322.5835,1597.4165,607.9644,1597.4165,960,1312.0352,1597.4165,960,1597.4165Z"/><path class="cls-2" d="M960,624.4037c-185.3447,0-335.5963,150.2516-335.5963,335.5963S774.6553,1295.5963,960,1295.5963,1295.5963,1145.3447,1295.5963,960,1145.3447,624.4037,960,624.4037Zm0,641.1329c-168.7431,0-305.5366-136.7934-305.5366-305.5366S791.2569,654.4634,960,654.4634,1265.5366,791.2566,1265.5366,960,1128.743,1265.5366,960,1265.5366Z"/><path class="cls-2" d="M573.1957,677.3946,536.9293,602.809a9.9426,9.9426,0,0,1,1.4841-10.9687c16.5688-18.6513,79.2308-85.01,169.7371-130.4238a10.0776,10.0776,0,0,1,10.2869.7855l67.49,47.5185Z"/><path class="cls-2" d="M966.1708,478.5409l38.2986-73.5628a9.9421,9.9421,0,0,1,9.6937-5.3427c24.8511,2.1958,115.479,12.99,205.874,58.6259a10.0779,10.0779,0,0,1,5.4976,8.73l2.0424,82.5152Z"/><path class="cls-2" d="M1337.3163,662.7925l81.09-17.3986a9.9422,9.9422,0,0,1,10.2965,4.0614C1442.856,670,1492.3236,746.7,1514.802,845.4352a10.0782,10.0782,0,0,1-3.22,9.8016l-62.2653,54.1843Z"/><path class="cls-2" d="M1430.948,1061.4211l63.3356,53.5431a9.9426,9.9426,0,0,1,3.0793,10.6317c-7.6089,23.7592-38.0759,109.7924-102.4791,187.9338a10.0782,10.0782,0,0,1-9.7257,3.4425l-80.9431-16.16Z"/><path class="cls-2" d="M1177.4468,1385.6173l-.2393,82.9349a9.942,9.942,0,0,1-6.1577,9.1978c-23.084,9.4617-108.5476,41.4917-209.8041,42.4647a10.078,10.078,0,0,1-8.8928-5.23l-39.7077-72.3618Z"/><path class="cls-2" d="M762.6117,1398.0874l-65.84,50.4313a9.9425,9.9425,0,0,1-11.0442.7363c-21.5844-12.51-99.12-60.6575-161.6945-140.2709a10.0776,10.0776,0,0,1-1.2847-10.2365l33.0829-75.62Z"/><path class="cls-2" d="M496.2514,1084.748l-80.75-18.9128a9.9422,9.9422,0,0,1-7.5745-8.071c-4.0193-24.622-15.977-115.1039,5.8813-213.9778a10.078,10.078,0,0,1,7.099-7.4862l79.4459-22.3892Z"/><path class="cls-3" d="M1352.715,386.9186l-54.2615,24.2749a4.1527,4.1527,0,0,0-1.15.7668L726.8211,949.0261a4.1515,4.1515,0,0,0,3.7594,7.0724l367.9074-83.0126a4.1514,4.1514,0,0,1,3.6311,7.1882L505.841,1396.5225a4.1516,4.1516,0,0,1-6.8-2.388l-9.9113-53.9112a4.1514,4.1514,0,0,0-7.8477-.9992l-87.575,188.419a4.1514,4.1514,0,0,0,5.3206,5.5986l192.85-77.9622a4.1514,4.1514,0,0,0-.5031-7.8646l-55.5066-14.5514a4.1515,4.1515,0,0,1-1.6056-7.2043L1293.4805,792.71a4.1515,4.1515,0,0,0-3.1449-7.3115l-307.84,36.3233a4.1515,4.1515,0,0,1-2.8723-7.52l546.7659-383.9529a4.1514,4.1514,0,0,0-1.52-7.4577l-169.5926-36.1427A4.1518,4.1518,0,0,0,1352.715,386.9186Z"/></svg>